# xmcd
#
# Track frame offsets: 
#        150
#        14262
#        23560
#        32625
#        47360
#        60560
#        76182
#        100740
#        113390
#        128610
#        139617
#        153532
#        166987
#
# Disc length: 2399 seconds
#
# Revision: 0
# Processed by: cddbd v1.5PL3 Copyright (c) Steve Scherf et al.
# Submitted via: ExactAudioCopy v0.95a4
#
DISCID=89095d0d
DTITLE=Charles Brown - Alone On The Piano
DYEAR=2004
DGENRE=Blues
TTITLE0=Moonrise
TTITLE1=Gloria
TTITLE2=I'll Miss You
TTITLE3=Get Yourself Another Fool
TTITLE4=I Lost Everything
TTITLE5=All My Life
TTITLE6=I Got It Bad (And That Ain't Good)
TTITLE7=Is You Is Or Is You Ain't (Ma' Baby)
TTITLE8=Sweet Slumber
TTITLE9=Black Nile
TTITLE10=Cottage For Sale
TTITLE11=Drifting Blues
TTITLE12=So Long
EXTD=
EXTT0=
EXTT1=
EXTT2=
EXTT3=
EXTT4=
EXTT5=
EXTT6=
EXTT7=
EXTT8=
EXTT9=
EXTT10=
EXTT11=
EXTT12=
PLAYORDER=
